HIERARCHY
ROOT Hips
{
  OFFSET 5.84602e-005 68.8428 3.50346
  CHANNELS 6 Xposition Yposition Zposition Zrotation Xrotation Yrotation
  JOINT Spine
  {
    OFFSET 0 8.597 -4.6522
    CHANNELS 3 Zrotation Xrotation Yrotation
    JOINT Spine1
    {
      OFFSET 0 7.8454 0.4098
      CHANNELS 3 Zrotation Xrotation Yrotation
      JOINT Spine2
      {
        OFFSET 0 9.7078 -2.1609
        CHANNELS 3 Zrotation Xrotation Yrotation
        JOINT Neck
        {
          OFFSET 0 21.8761 -0.4549
          CHANNELS 3 Zrotation Xrotation Yrotation
          JOINT Head
          {
            OFFSET 0 12.3537 3.3602
            CHANNELS 3 Zrotation Xrotation Yrotation
            End Site
            {
              OFFSET 0.0001 18.9506 0.5657
            }
          }
        }
        JOINT LeftShoulder
        {
          OFFSET 2.2086 21.1115 7.2329
          CHANNELS 3 Zrotation Xrotation Yrotation
          JOINT LeftArm
          {
            OFFSET 13.1193 3.0282 -4.8998
            CHANNELS 3 Zrotation Xrotation Yrotation
            JOINT LeftForeArm
            {
              OFFSET 27.4081 -0.0973053 -0.2375
              CHANNELS 3 Zrotation Xrotation Yrotation
              JOINT LeftHand
              {
                OFFSET 22.8641 0.0662994 -0.1369
                CHANNELS 3 Zrotation Xrotation Yrotation
                JOINT LeftHandIndex1
                {
                  OFFSET 8.8614 0.775009 2.4612
                  CHANNELS 3 Zrotation Xrotation Yrotation
                  JOINT LeftHandIndex2
                  {
                    OFFSET 3.3146 -0.808304 0.5841
                    CHANNELS 3 Zrotation Xrotation Yrotation
                    JOINT LeftHandIndex3
                    {
                      OFFSET 2.2628 -0.552002 0.3989
                      CHANNELS 3 Zrotation Xrotation Yrotation
                      End Site
                      {
                        OFFSET 1.6102 -0.4807 0.2612
                      }
                    }
                  }
                }
                JOINT LeftHandMiddle1
                {
                  OFFSET 8.9937 0.895004 0.2143
                  CHANNELS 3 Zrotation Xrotation Yrotation
                  JOINT LeftHandMiddle2
                  {
                    OFFSET 4.0984 0.0113983 -0.0242
                    CHANNELS 3 Zrotation Xrotation Yrotation
                    JOINT LeftHandMiddle3
                    {
                      OFFSET 2.2716 0.00689697 -0.0138001
                      CHANNELS 3 Zrotation Xrotation Yrotation
                      End Site
                      {
                        OFFSET 2.0404 -0.1441 0.0027
                      }
                    }
                  }
                }
                JOINT LeftHandRing1
                {
                  OFFSET 8.5234 0.597198 -2.0164
                  CHANNELS 3 Zrotation Xrotation Yrotation
                  JOINT LeftHandRing2
                  {
                    OFFSET 3.7188 -0.188293 -0.2328
                    CHANNELS 3 Zrotation Xrotation Yrotation
                    JOINT LeftHandRing3
                    {
                      OFFSET 2.1191 -0.106598 -0.1332
                      CHANNELS 3 Zrotation Xrotation Yrotation
                      End Site
                      {
                        OFFSET 1.8737 -0.2304 -0.0886
                      }
                    }
                  }
                }
                JOINT LeftHandPinky1
                {
                  OFFSET 7.9094 -0.601089 -3.4825
                  CHANNELS 3 Zrotation Xrotation Yrotation
                  JOINT LeftHandPinky2
                  {
                    OFFSET 2.2874 -0.477005 -0.6314
                    CHANNELS 3 Zrotation Xrotation Yrotation
                    JOINT LeftHandPinky3
                    {
                      OFFSET 1.6774 -0.349396 -0.4633
                      CHANNELS 3 Zrotation Xrotation Yrotation
                      End Site
                      {
                        OFFSET 1.4888 -0.4091 -0.3416
                      }
                    }
                  }
                }
                JOINT LeftHandThumb1
                {
                  OFFSET 1.833 -1.3875 1.3896
                  CHANNELS 3 Zrotation Xrotation Yrotation
                  JOINT LeftHandThumb2
                  {
                    OFFSET 3.4129 -1.121 2.5732
                    CHANNELS 3 Zrotation Xrotation Yrotation
                    JOINT LeftHandThumb3
                    {
                      OFFSET 2.2474 -0.804199 1.6192
                      CHANNELS 3 Zrotation Xrotation Yrotation
                      End Site
                      {
                        OFFSET 1.6527 -0.5689 1.1317
                      }
                    }
                  }
                }
              }
            }
          }
        }
        JOINT RightShoulder
        {
          OFFSET -2.2086 21.1115 7.2329
          CHANNELS 3 Zrotation Xrotation Yrotation
          JOINT RightArm
          {
            OFFSET -13.1216 3.0287 -4.9007
            CHANNELS 3 Zrotation Xrotation Yrotation
            JOINT RightForeArm
            {
              OFFSET -27.4081 -0.0973053 -0.2375
              CHANNELS 3 Zrotation Xrotation Yrotation
              JOINT RightHand
              {
                OFFSET -22.8641 0.0664063 -0.1369
                CHANNELS 3 Zrotation Xrotation Yrotation
                JOINT RightHandIndex1
                {
                  OFFSET -8.8614 0.774994 2.4612
                  CHANNELS 3 Zrotation Xrotation Yrotation
                  JOINT RightHandIndex2
                  {
                    OFFSET -3.3146 -0.808304 0.5841
                    CHANNELS 3 Zrotation Xrotation Yrotation
                    JOINT RightHandIndex3
                    {
                      OFFSET -2.2628 -0.552002 0.3989
                      CHANNELS 3 Zrotation Xrotation Yrotation
                      End Site
                      {
                        OFFSET -1.6102 -0.4807 0.2612
                      }
                    }
                  }
                }
                JOINT RightHandMiddle1
                {
                  OFFSET -8.9937 0.894989 0.2143
                  CHANNELS 3 Zrotation Xrotation Yrotation
                  JOINT RightHandMiddle2
                  {
                    OFFSET -4.0984 0.0113983 -0.0242
                    CHANNELS 3 Zrotation Xrotation Yrotation
                    JOINT RightHandMiddle3
                    {
                      OFFSET -2.2716 0.00691223 -0.0138001
                      CHANNELS 3 Zrotation Xrotation Yrotation
                      End Site
                      {
                        OFFSET -2.0404 -0.1441 0.0027
                      }
                    }
                  }
                }
                JOINT RightHandRing1
                {
                  OFFSET -8.5234 0.597198 -2.0164
                  CHANNELS 3 Zrotation Xrotation Yrotation
                  JOINT RightHandRing2
                  {
                    OFFSET -3.7188 -0.188309 -0.2328
                    CHANNELS 3 Zrotation Xrotation Yrotation
                    JOINT RightHandRing3
                    {
                      OFFSET -2.1191 -0.106598 -0.1332
                      CHANNELS 3 Zrotation Xrotation Yrotation
                      End Site
                      {
                        OFFSET -1.8737 -0.2304 -0.0886
                      }
                    }
                  }
                }
                JOINT RightHandPinky1
                {
                  OFFSET -7.9094 -0.601105 -3.4825
                  CHANNELS 3 Zrotation Xrotation Yrotation
                  JOINT RightHandPinky2
                  {
                    OFFSET -2.2874 -0.477005 -0.6314
                    CHANNELS 3 Zrotation Xrotation Yrotation
                    JOINT RightHandPinky3
                    {
                      OFFSET -1.6774 -0.349396 -0.4633
                      CHANNELS 3 Zrotation Xrotation Yrotation
                      End Site
                      {
                        OFFSET -1.4888 -0.4091 -0.3416
                      }
                    }
                  }
                }
                JOINT RightHandThumb1
                {
                  OFFSET -1.833 -1.38751 1.3896
                  CHANNELS 3 Zrotation Xrotation Yrotation
                  JOINT RightHandThumb2
                  {
                    OFFSET -3.41299 -1.12099 2.5732
                    CHANNELS 3 Zrotation Xrotation Yrotation
                    JOINT RightHandThumb3
                    {
                      OFFSET -2.24741 -0.804108 1.6192
                      CHANNELS 3 Zrotation Xrotation Yrotation
                      End Site
                      {
                        OFFSET -1.6527 -0.5689 1.1317
                      }
                    }
                  }
                }
              }
            }
          }
        }
      }
    }
  }
  JOINT RightUpLeg
  {
    OFFSET -9.1966 3.8861 -0.7581
    CHANNELS 3 Zrotation Xrotation Yrotation
    JOINT RightLeg
    {
      OFFSET -0.7359 -41.0265 0
      CHANNELS 3 Zrotation Xrotation Yrotation
      JOINT RightFoot
      {
        OFFSET 0 -40.2855 0
        CHANNELS 3 Zrotation Xrotation Yrotation
        JOINT RightToeBase
        {
          OFFSET 0 -5.6122 11.7359
          CHANNELS 3 Zrotation Xrotation Yrotation
          End Site
          {
            OFFSET 0 0 7.8731
          }
        }
      }
    }
  }
  JOINT LeftUpLeg
  {
    OFFSET 9.1965 3.8864 -0.7581
    CHANNELS 3 Zrotation Xrotation Yrotation
    JOINT LeftLeg
    {
      OFFSET 0.7359 -41.0268 0
      CHANNELS 3 Zrotation Xrotation Yrotation
      JOINT LeftFoot
      {
        OFFSET 0 -40.2855 0
        CHANNELS 3 Zrotation Xrotation Yrotation
        JOINT LeftToeBase
        {
          OFFSET 0 -5.6122 11.7359
          CHANNELS 3 Zrotation Xrotation Yrotation
          End Site
          {
            OFFSET 0 0 7.8731
          }
        }
      }
    }
  }
}
MOTION
Frames:	4
Frame Time:	0.0333333
0.000186472 5.39387 8.11279 -180 -88.6463 -180 -0.0290795 -1.15721 -0.149694 -0.0612024 -2.31432 -0.300067 -0.0612024 -2.31432 -0.300067 3.34811e-006 39.9971 -6.79154e-006 9.37966 -23.4358 9.63327 -19.189 13.2047 1.31912 -60.3 -7.92595 -32.3096 -12.1392 34.6505 0.36286 -39.2278 -58.8325 11.9292 4.91506e-006 2.18018e-006 3.44144e-006 -6.36111e-015 1.59028e-015 1.59028e-015 4.91506e-006 2.18018e-006 3.44144e-006 4.91506e-006 2.18018e-006 3.44144e-006 -0.0146407 -8.4104e-005 1.65059e-006 4.91538e-006 2.17975e-006 3.44172e-006 4.91506e-006 2.18018e-006 3.44144e-006 -0.0187493 -0.00118075 6.08745e-005 4.9155e-006 2.17964e-006 3.44175e-006 4.91506e-006 2.18018e-006 3.44144e-006 -0.0122733 -0.00325355 0.000675487 3.59391e-006 4.39539e-006 2.98351e-006 4.91506e-006 2.18018e-006 3.44144e-006 -6.36111e-015 1.59028e-015 1.59028e-015 4.91506e-006 2.18018e-006 3.44144e-006 20.5695 13.0339 -0.564021 59.3503 -8.45959 31.9174 11.5755 34.6145 -0.363797 39.2209 -58.2455 -12.625 3.18055e-015 -4.77083e-015 -0 -6.36111e-015 -4.77083e-015 1.59028e-015 -6.36111e-015 -4.77083e-015 -0 3.18055e-015 -4.77083e-015 -0 0.0149883 -8.68093e-005 3.03464e-006 4.19886e-007 1.40239e-006 9.56773e-007 3.18055e-015 -4.77083e-015 -0 0.0189969 -0.00119626 -6.47535e-005 -6.36111e-015 0 3.18055e-015 3.18055e-015 -4.77083e-015 -0 0.0122856 -0.00325599 -0.00067648 -3.18055e-015 -3.18055e-015 4.77083e-015 3.18055e-015 -4.77083e-015 -0 -6.36111e-015 -4.77083e-015 1.59028e-015 -6.36111e-015 -4.77083e-015 -0 -21.8963 -23.821 -49.0487 -66.839 52.6199 54.2763 4.92106 13.7521 -12.0063 3.18055e-015 -3.18055e-015 -0 21.8753 -23.8263 49.0284 66.7925 52.637 -54.2249 -4.92581 13.7641 11.9916 -3.0726e-006 4.05081e-006 -7.1646e-006 
0.000181756 5.34828 8.09017 -180 -88.2959 -180 -0.0296205 -1.04688 -0.149574 -0.0619904 -2.09368 -0.299764 -0.0619903 -2.09367 -0.299764 2.67975e-006 39.9983 -1.68473e-006 9.3146 -23.2804 9.56722 -19.4107 12.8899 1.03677 -60.0933 -8.05634 -32.2445 -11.9104 34.6443 0.363272 -39.46 -58.9076 11.8788 3.18055e-015 1.59028e-015 3.18055e-015 4.17869e-006 -1.21828e-007 -7.36574e-007 -6.36111e-015 -7.95139e-015 4.77083e-015 3.18055e-015 1.59028e-015 3.18055e-015 -0.0146013 -8.326e-005 -1.07385e-006 -3.18055e-015 -1.59028e-015 -0 3.18055e-015 1.59028e-015 3.18055e-015 -0.0187591 -0.00117731 6.20171e-005 -3.18055e-015 3.18055e-015 1.59028e-015 3.18055e-015 1.59028e-015 3.18055e-015 -0.0122572 -0.00324514 0.000675392 0 1.59028e-015 -0 3.18055e-015 1.59028e-015 3.18055e-015 4.17869e-006 -1.21828e-007 -7.36574e-007 -6.36111e-015 -7.95139e-015 4.77083e-015 20.8461 12.7158 -0.24292 59.1015 -8.61422 31.8335 11.3225 34.6082 -0.364232 39.4487 -58.2946 -12.6136 -2.46514e-006 1.09908e-006 -1.71368e-006 3.18055e-015 -3.18055e-015 -7.95139e-015 -2.46514e-006 1.09908e-006 -1.71368e-006 -2.46514e-006 1.09908e-006 -1.71368e-006 0.014974 -9.5779e-005 -7.5237e-006 -2.4653e-006 1.09886e-006 -1.71382e-006 -2.46514e-006 1.09908e-006 -1.71368e-006 0.0189981 -0.00119115 -6.11132e-005 -2.46536e-006 1.09881e-006 -1.71383e-006 -2.46514e-006 1.09908e-006 -1.71368e-006 0.0122775 -0.00325331 -0.000676471 -2.46533e-006 1.09892e-006 -1.71372e-006 -2.46514e-006 1.09908e-006 -1.71368e-006 3.18055e-015 -3.18055e-015 -7.95139e-015 -2.46514e-006 1.09908e-006 -1.71368e-006 -21.8968 -23.5469 -49.0111 -66.8437 52.6208 54.2795 4.82722 13.7892 -11.949 -3.14927e-006 -3.44301e-006 -1.9108e-006 21.8758 -23.5524 48.9906 66.7974 52.638 -54.2281 -4.83222 13.8012 11.9344 -4.48061e-006 2.54775e-006 -4.70135e-006 
0.000183523 5.30255 8.06728 -180 -87.9455 -180 -0.0301605 -0.936526 -0.149447 -0.0627771 -1.87299 -0.299448 -0.0627769 -1.87301 -0.299448 4.36439e-006 39.9976 -1.00339e-005 9.24978 -23.1249 9.50141 -19.6338 12.5761 0.753483 -59.8864 -8.18648 -32.1789 -11.6817 34.6382 0.363688 -39.6929 -58.9827 11.8277 -4.41391e-032 1.59028e-015 1.59028e-015 -3.18055e-015 3.18055e-015 4.77083e-015 3.18055e-015 1.59028e-015 4.77083e-015 -4.41391e-032 1.59028e-015 1.59028e-015 -0.0146125 -8.65333e-005 -3.69538e-006 6.36111e-015 -4.77083e-015 4.77083e-015 -4.41391e-032 1.59028e-015 1.59028e-015 -0.0187775 -0.00117745 6.16026e-005 3.18055e-015 3.18055e-015 4.77083e-015 -4.41391e-032 1.59028e-015 1.59028e-015 -0.0122621 -0.00324541 0.000675054 -1.27222e-014 -3.18055e-015 -0 -4.41391e-032 1.59028e-015 1.59028e-015 -3.18055e-015 3.18055e-015 4.77083e-015 3.18055e-015 1.59028e-015 4.77083e-015 21.1241 12.3991 0.0793517 58.8525 -8.76846 31.7489 11.0695 34.6021 -0.364682 39.6768 -58.3436 -12.6018 -1.71426e-006 -1.19987e-006 2.46492e-006 2.46492e-006 -1.0994e-006 1.71426e-006 5.34919e-006 -7.97936e-007 4.38011e-006 -1.71426e-006 -1.19987e-006 2.46492e-006 0.0150015 -9.8293e-005 3.06434e-006 4.93016e-006 -2.19835e-006 3.4288e-006 -1.71426e-006 -1.19987e-006 2.46492e-006 0.0189915 -0.00119849 -5.75505e-005 5.34787e-006 -7.97121e-007 4.38019e-006 -1.71426e-006 -1.19987e-006 2.46492e-006 0.0122668 -0.0032413 -0.000673669 5.34844e-006 -7.97202e-007 4.3801e-006 -1.71426e-006 -1.19987e-006 2.46492e-006 2.46492e-006 -1.0994e-006 1.71426e-006 5.34919e-006 -7.97936e-007 4.38011e-006 -21.8975 -23.273 -48.9736 -66.8486 52.6218 54.2827 4.73333 13.8263 -11.8917 -3.62629e-006 -5.16525e-007 -6.00408e-006 21.8766 -23.2781 48.953 66.8018 52.6389 -54.2311 -4.73856 13.8383 11.8771 3.53113e-031 6.36111e-015 -3.18055e-015 
0.000182613 5.25668 8.04412 -180 -87.5951 -180 -0.0307014 -0.826262 -0.149325 -0.0635668 -1.6524 -0.299138 -0.0635668 -1.65243 -0.299138 -1.09495e-005 39.9977 2.24517e-005 9.1852 -22.9693 9.43584 -19.8582 12.2636 0.46942 -59.6792 -8.31636 -32.1128 -11.4529 34.6321 0.364077 -39.9263 -59.0576 11.7759 4.24874e-007 -1.35523e-006 9.70377e-007 -3.18055e-015 3.18055e-015 -3.18055e-015 -4.41391e-032 1.59028e-015 1.59028e-015 4.24874e-007 -1.35523e-006 9.70377e-007 -0.0146166 -9.26689e-005 -3.1598e-007 6.36111e-015 3.18055e-015 -1.59028e-015 4.24874e-007 -1.35523e-006 9.70377e-007 -0.0187481 -0.0011758 6.25762e-005 -3.18055e-015 3.18055e-015 -3.18055e-015 4.24874e-007 -1.35523e-006 9.70377e-007 -0.0122728 -0.00324447 0.000677976 3.18055e-015 3.18055e-015 -1.59028e-015 4.24874e-007 -1.35523e-006 9.70377e-007 -3.18055e-015 3.18055e-015 -3.18055e-015 -4.41391e-032 1.59028e-015 1.59028e-015 21.4036 12.0841 0.402719 58.6031 -8.92234 31.6636 10.8164 34.5961 -0.365083 39.9052 -58.3926 -12.5895 -3.18055e-015 -3.18055e-015 4.77083e-015 8.82781e-032 -1.59028e-015 3.18055e-015 -3.18055e-015 -4.77083e-015 4.77083e-015 -3.18055e-015 -3.18055e-015 4.77083e-015 0.0149951 -9.29697e-005 -4.07238e-006 9.54166e-015 1.59028e-015 -6.36111e-015 -3.18055e-015 -3.18055e-015 4.77083e-015 0.0190073 -0.00119318 -6.20066e-005 -1.32417e-031 4.77083e-015 1.59028e-015 -3.18055e-015 -3.18055e-015 4.77083e-015 0.0122715 -0.00324461 -0.000676774 4.17005e-007 1.40078e-006 9.48617e-007 -3.18055e-015 -3.18055e-015 4.77083e-015 8.82781e-032 -1.59028e-015 3.18055e-015 -3.18055e-015 -4.77083e-015 4.77083e-015 -21.8984 -22.9987 -48.9361 -66.853 52.6227 54.2859 4.63937 13.8632 -11.8343 9.63139e-007 2.30563e-006 4.19248e-007 21.8776 -23.004 48.9154 66.8066 52.6399 -54.2344 -4.64487 13.8752 11.8197 -1.36772e-006 -8.02804e-007 -3.36631e-006 
